<svg xmlns="http://www.w3.org/2000/svg" xmlns:xlink="http://www.w3.org/1999/xlink" width="100%" height="100%" fill-rule="evenodd" stroke-linejoin="round" stroke-miterlimit="1.414" clip-rule="evenodd" version="1.1" viewBox="0 0 128 128" xml:space="preserve"><g transform="matrix(1,0,0,1,0,-321)"><g id="_3d_sound" transform="matrix(1,0,0,1.37634,0,135.194)"><rect width="128" height="93" x="0" y="135" fill="none"/><g><path fill="#1A91D0" fill-rule="nonzero" d="M11.976,40.933L11.976,94.158L59.467,121.987L59.467,68.721L11.976,40.933Z" transform="matrix(1,0,0,0.726562,0,135)"/></g><g><path fill="#022F5D" fill-rule="nonzero" d="M116.024,40.969L68.53,68.779L68.53,122L116.024,94.274L116.024,40.969Z" transform="matrix(1,0,0,0.726562,0,135)"/></g><g><path fill="#819CBD" fill-rule="nonzero" d="M111.505,32.807L63.998,6L16.522,32.789L64.042,60.595L111.505,32.807Z" transform="matrix(1,0,0,0.726562,0,135)"/></g></g></g></svg>