<svg xmlns="http://www.w3.org/2000/svg" xmlns:xlink="http://www.w3.org/1999/xlink" width="100%" height="100%" fill-rule="evenodd" stroke-linejoin="round" stroke-miterlimit="1.414" clip-rule="evenodd" version="1.1" viewBox="0 0 128 128" xml:space="preserve"><g transform="matrix(1,0,0,1,-384,0)"><g id="away" transform="matrix(1,0,0,1,384,0)"><rect width="128" height="128" x="0" y="0" fill="none"/><g><path fill="#404547" fill-rule="nonzero" d="M119,110.464C119,115.21 115.153,119.058 110.406,119.058L17.594,119.058C12.848,119.058 9,115.21 9,110.464L9,62.339C9,57.592 12.848,53.745 17.594,53.745L110.407,53.745C115.154,53.745 119.001,57.592 119.001,62.339L119.001,110.464L119,110.464Z" transform="matrix(1,0,0,1,-0.0005,0)"/></g><g><path fill="#fff" fill-rule="nonzero" d="M71.931,84.986L84.646,97.742C85.205,98.302 85.485,98.967 85.485,99.735C85.485,100.505 85.205,101.155 84.646,101.686L80.702,105.63C80.17,106.19 79.512,106.47 78.729,106.47C77.945,106.47 77.288,106.19 76.756,105.63L64,92.917L51.244,105.631C50.712,106.191 50.055,106.471 49.272,106.471C48.488,106.471 47.831,106.191 47.3,105.631L43.356,101.687C42.796,101.156 42.517,100.505 42.517,99.736C42.517,98.967 42.796,98.302 43.356,97.743L56.07,84.987L43.355,72.271C42.795,71.711 42.516,71.047 42.516,70.278C42.516,69.509 42.795,68.844 43.355,68.285L47.299,64.341C47.83,63.81 48.487,63.544 49.271,63.544C50.054,63.544 50.711,63.81 51.243,64.341L64,77.098L76.756,64.341C77.287,63.81 77.944,63.544 78.729,63.544C79.511,63.544 80.169,63.81 80.702,64.341L84.646,68.285C85.205,68.845 85.485,69.51 85.485,70.278C85.485,71.048 85.205,71.712 84.646,72.271L71.931,84.986Z" transform="matrix(1,0,0,1,-0.0005,0)"/></g><g><path fill="#101719" fill-rule="nonzero" d="M63.999,23.439L81.165,43.556L95.462,43.556L65.521,8.469L63.999,6.686L62.478,8.469L32.537,43.556L46.834,43.556L63.999,23.439Z" transform="matrix(1,0,0,1,-0.0005,0)"/></g></g></g></svg>