<svg xmlns="http://www.w3.org/2000/svg" xmlns:xlink="http://www.w3.org/1999/xlink" width="100%" height="100%" fill-rule="evenodd" stroke-linejoin="round" stroke-miterlimit="1.414" clip-rule="evenodd" version="1.1" viewBox="0 0 128 128" xml:space="preserve"><g transform="matrix(1,0,0,1,-384,-640)"><g id="bookmark_add" transform="matrix(1,0,0,1.37634,384,454.194)"><rect width="128" height="93" x="0" y="135" fill="none"/><g><path fill="#022F5D" fill-rule="nonzero" d="M39.078,119L24.041,104.135L9,119L9,9L39.078,9L39.078,119Z" transform="matrix(1,0,0,0.726562,0,135)"/></g><g><path fill="#819CBD" fill-rule="nonzero" d="M102.042,52.564L102.042,65.092L114.57,65.092C116.102,65.092 117.591,65.344 119,65.806L119,9L88.922,9L88.922,38.563C92.338,38.781 95.513,40.189 97.948,42.619C100.588,45.262 102.042,48.793 102.042,52.564Z" transform="matrix(1,0,0,0.726562,0,135)"/><path fill="#426180" fill-rule="nonzero" d="M65.093,65.092L65.093,52.564C65.093,48.792 66.549,45.258 69.199,42.607C71.818,39.994 75.308,38.549 79.039,38.523L79.039,9L48.961,9L48.961,65.566C50.123,65.263 51.328,65.091 52.564,65.091L65.093,65.091L65.093,65.092Z" transform="matrix(1,0,0,0.726562,0,135)"/></g><g><path fill="#1CA037" fill-rule="nonzero" d="M114.57,92.427L92.427,92.427L92.427,114.571C92.427,115.813 91.999,116.866 91.146,117.717C90.29,118.574 89.243,119 87.998,119L79.141,119C77.896,119 76.846,118.562 75.991,117.687C75.137,116.813 74.709,115.769 74.709,114.571L74.709,92.427L52.564,92.427C51.318,92.427 50.269,91.988 49.414,91.109C48.56,90.233 48.134,89.201 48.134,87.999L48.134,79.142C48.134,77.896 48.56,76.847 49.414,75.992C50.268,75.138 51.318,74.709 52.564,74.709L74.708,74.709L74.708,52.564C74.708,51.318 75.136,50.269 75.99,49.414C76.845,48.56 77.895,48.134 79.14,48.134L87.997,48.134C89.242,48.134 90.289,48.561 91.144,49.414C91.998,50.268 92.425,51.318 92.425,52.564L92.425,74.707L114.569,74.707C115.811,74.707 116.864,75.137 117.715,75.99C118.572,76.845 118.998,77.894 118.998,79.14L118.998,87.997C118.998,89.199 118.572,90.231 117.715,91.107C116.865,91.987 115.813,92.427 114.57,92.427Z" transform="matrix(1,0,0,0.726562,0,135)"/></g></g></g></svg>