<svg xmlns="http://www.w3.org/2000/svg" xmlns:xlink="http://www.w3.org/1999/xlink" width="100%" height="100%" fill-rule="evenodd" stroke-linejoin="round" stroke-miterlimit="1.414" clip-rule="evenodd" version="1.1" viewBox="0 0 128 128" xml:space="preserve"><rect id="channel_red" width="128" height="128" x="0" y="0" fill="none"/><path fill="#c90709" fill-rule="nonzero" d="M119,66.152c0,12.896 -10.455,23.348 -23.349,23.348l-63.304,0c-12.893,0 -23.347,-10.451 -23.347,-23.348l0,-30.299c0,-12.894 10.454,-23.348 23.347,-23.348l63.305,0c12.893,0 23.348,10.454 23.348,23.348l0,30.299Z"/><path fill="url(#_Linear1)" fill-rule="nonzero" d="M93.891,86.693c0,0 -8.386,24.063 -33.907,28.802c15.313,-13.489 5.326,-29.327 5.326,-29.327l28.581,0.525Z"/><defs><linearGradient id="_Linear1" x1="0" x2="1" y1="0" y2="0" gradientTransform="matrix(6.30231e-15,-102.924,102.924,6.30231e-15,76.9365,115.495)" gradientUnits="userSpaceOnUse"><stop offset="0" stop-color="#c9070a" stop-opacity="1"/><stop offset=".2" stop-color="#c9070a" stop-opacity="1"/><stop offset="1" stop-color="#ec6600" stop-opacity="1"/></linearGradient></defs></svg>