<svg xmlns="http://www.w3.org/2000/svg" xmlns:xlink="http://www.w3.org/1999/xlink" width="100%" height="100%" fill-rule="evenodd" stroke-linejoin="round" stroke-miterlimit="1.414" clip-rule="evenodd" version="1.1" viewBox="0 0 128 128" xml:space="preserve"><rect id="channel_groups" width="128" height="128" x="0" y="0" fill="none"/><path fill="#333" fill-rule="nonzero" d="M100.715,9.001l-49.56,0c-9.834,0 -17.827,7.775 -18.235,17.507l45.931,0c15.507,0 28.119,12.611 28.119,28.114l0,13.535c7.012,-2.558 12.03,-9.268 12.03,-17.162l0,-23.714c0,-10.093 -8.189,-18.28 -18.285,-18.28Z"/><path fill="#426080" fill-rule="nonzero" d="M78.852,35.972l-51.033,0c-10.394,0 -18.819,8.429 -18.819,18.823l0,24.419c0,10.401 8.425,18.829 18.819,18.829l27.845,0c1.64,4.319 3.328,13.121 -5.56,20.957c16.241,-3.017 23.873,-15.722 26.367,-20.957l2.381,0c10.396,0 18.829,-8.428 18.829,-18.829l0,-24.419c0,-10.394 -8.433,-18.823 -18.829,-18.823Z"/></svg>