<svg xmlns="http://www.w3.org/2000/svg" xmlns:xlink="http://www.w3.org/1999/xlink" width="100%" height="100%" fill-rule="evenodd" stroke-linejoin="round" stroke-miterlimit="1.414" clip-rule="evenodd" version="1.1" viewBox="0 0 128 128" xml:space="preserve"><g transform="matrix(1,0,0,1,-1920,-480)"><g id="find" transform="matrix(1,0,0,1.37634,1920,294.194)"><rect width="128" height="93" x="0" y="135" fill="none"/><g><path fill="#426180" fill-rule="nonzero" d="M80.346,20.889C95.104,20.889 107.112,32.895 107.112,47.651C107.112,62.4 95.104,74.408 80.346,74.408C65.599,74.408 53.593,62.4 53.593,47.651C53.593,32.895 65.599,20.889 80.346,20.889M80.346,9C59.015,9 41.696,26.306 41.696,47.65C41.696,68.976 59.015,86.304 80.346,86.304C101.693,86.305 119,68.977 119,47.65C119,26.306 101.693,9 80.346,9Z" transform="matrix(1,0,0,0.726562,3.03768e-05,135)"/></g><g><path fill="#404547" fill-rule="nonzero" d="M39.405,73.889L11.216,102.078C9.757,103.528 9.037,105.274 9.001,107.348C8.968,109.395 9.705,111.201 11.208,112.7L15.277,116.774C16.778,118.27 18.554,119.036 20.609,119C22.637,119.014 24.413,118.256 25.907,116.765L54.088,88.58C48.205,84.792 43.19,79.774 39.405,73.889Z" transform="matrix(1,0,0,0.726562,3.03768e-05,135)"/></g></g></g></svg>