<svg xmlns="http://www.w3.org/2000/svg" xmlns:xlink="http://www.w3.org/1999/xlink" width="100%" height="100%" fill-rule="evenodd" stroke-linejoin="round" stroke-miterlimit="1.414" clip-rule="evenodd" version="1.1" viewBox="0 0 128 128" xml:space="preserve"><g transform="matrix(1,0,0,1,-2304,0)"><g id="hoster_button" transform="matrix(1,0,0,1,2304,0)"><rect width="128" height="128" x="0" y="0" fill="none"/><g transform="matrix(1,0,0,1,-0.0005,0)"><rect width="10" height="27.736" x="59" y="85.408" fill="#404547"/></g><g><path fill="#878B8C" fill-rule="nonzero" d="M110.406,58.314L17.594,58.314C12.848,58.314 9,62.142 9,66.862L9,82.251C9,86.973 12.848,90.799 17.594,90.799L110.407,90.799C115.153,90.799 119.001,86.973 119.001,82.251L119.001,66.862C119,62.142 115.152,58.314 110.406,58.314Z" transform="matrix(1,0,0,1,-0.0005,0)"/></g><g><path fill="#878B8C" fill-rule="nonzero" d="M110.406,14L17.594,14C12.848,14 9,17.827 9,22.549L9,37.937C9,42.658 12.848,46.486 17.594,46.486L110.407,46.486C115.153,46.486 119.001,42.658 119.001,37.937L119.001,22.549C119,17.827 115.152,14 110.406,14Z" transform="matrix(1,0,0,1,-0.0005,0)"/></g><g transform="matrix(1,0,0,1,-0.0005,0)"><rect width="110" height="10" x="9" y="104" fill="#404547"/></g><g><path fill="#fff" fill-rule="nonzero" d="M108.688,35.897C108.688,37.023 107.772,37.936 106.638,37.936L78.081,37.936C76.947,37.936 76.031,37.023 76.031,35.897L76.031,24.587C76.031,23.462 76.947,22.548 78.081,22.548L106.638,22.548C107.772,22.548 108.688,23.462 108.688,24.587L108.688,35.897Z" transform="matrix(1,0,0,1,-0.0005,0)"/></g><g><path fill="#fff" fill-rule="nonzero" d="M108.688,80.211C108.688,81.343 107.775,82.251 106.637,82.251L78.082,82.251C76.944,82.251 76.031,81.343 76.031,80.211L76.031,68.902C76.031,67.771 76.944,66.862 78.082,66.862L106.637,66.862C107.775,66.862 108.688,67.771 108.688,68.902L108.688,80.211Z" transform="matrix(1,0,0,1,-0.0005,0)"/></g></g></g></svg>