<svg xmlns="http://www.w3.org/2000/svg" xmlns:xlink="http://www.w3.org/1999/xlink" width="100%" height="100%" fill-rule="evenodd" stroke-linejoin="round" stroke-miterlimit="1.414" clip-rule="evenodd" version="1.1" viewBox="0 0 128 128" xml:space="preserve"><g transform="matrix(1,0,0,1,-2688,-640)"><g id="message_incoming" transform="matrix(1,0,0,1.37634,2688,454.194)"><rect width="128" height="93" x="0" y="135" fill="none"/><g><path fill="#1CA037" fill-rule="nonzero" d="M63.997,127L95.872,89.047L77.38,89.047L77.38,36.19C77.38,35.01 76.976,34.019 76.168,33.211C75.359,32.403 74.365,32 73.187,32L54.802,32C53.668,32 52.687,32.403 51.857,33.212C51.025,34.02 50.612,35.011 50.612,36.191L50.612,89.047L32.13,89.047L63.997,127Z" transform="matrix(1,0,0,0.726562,0,135)"/></g></g></g></svg>