<svg xmlns="http://www.w3.org/2000/svg" xmlns:xlink="http://www.w3.org/1999/xlink" width="100%" height="100%" fill-rule="evenodd" stroke-linejoin="round" stroke-miterlimit="1.414" clip-rule="evenodd" version="1.1" viewBox="0 0 128 128" xml:space="preserve"><g transform="matrix(1,0,0,1,-3072,0)"><g id="on_whisperlist" transform="matrix(1,0,0,1,3072,0)"><rect width="128" height="128" x="0" y="0" fill="none"/><g id="circle36" transform="matrix(0.581818,0,0,0.581818,4.12115e-13,3.48166e-13)"><circle cx="109.92" cy="110.08" r="55" fill="#C90B0E"/></g><g id="path38"><path fill="url(#_Linear1)" fill-rule="nonzero" d="M157,100.39C156.988,105.588 155.729,110.709 153.33,115.32C145.33,103.43 129.84,95.32 112.06,95.32C92.54,95.32 75.8,105.02 68.65,118.86C64.907,113.425 62.883,106.989 62.84,100.39C62.84,79.16 83.91,61.92 109.92,61.92C135.93,61.92 157,79.16 157,100.39L157,100.39Z" transform="matrix(0.581818,0,0,0.581818,4.12115e-13,3.48166e-13)"/></g><g id="path40"><path fill="url(#_Linear2)" fill-rule="nonzero" d="M69.84,128.54C69.868,124.405 70.956,120.345 73,116.75C79.79,126.16 93,132.5 108.1,132.5C124.72,132.5 138.97,124.84 145.1,113.91C148.252,118.138 149.969,123.266 150,128.54C150,145.31 132.06,158.92 109.92,158.92C87.78,158.92 69.84,145.31 69.84,128.54Z" transform="matrix(0.581818,0,0,0.581818,4.12115e-13,3.48166e-13)"/></g></g></g><defs><linearGradient id="_Linear1" x1="0" x2="1" y1="0" y2="0" gradientTransform="matrix(2.80995e-15,45.89,-45.89,2.80995e-15,109.92,61.09)" gradientUnits="userSpaceOnUse"><stop offset="0" stop-color="#fff" stop-opacity=".8"/><stop offset="1" stop-color="#C90B0E" stop-opacity=".8"/></linearGradient><linearGradient id="_Linear2" x1="0" x2="1" y1="0" y2="0" gradientTransform="matrix(3.43972e-14,-36.23,36.23,3.43972e-14,109.92,159.57)" gradientUnits="userSpaceOnUse"><stop offset="0" stop-color="#fff" stop-opacity=".3"/><stop offset="0" stop-color="#FFFEFE" stop-opacity=".3"/><stop offset=".22" stop-color="#EFB5B6" stop-opacity=".3"/><stop offset=".43" stop-color="#E1797A" stop-opacity=".3"/><stop offset=".61" stop-color="#D7494C" stop-opacity=".3"/><stop offset=".78" stop-color="#CF272A" stop-opacity=".3"/><stop offset=".91" stop-color="#CB1315" stop-opacity=".3"/><stop offset="1" stop-color="#C90B0E" stop-opacity=".3"/></linearGradient></defs></svg>