<svg xmlns="http://www.w3.org/2000/svg" xmlns:xlink="http://www.w3.org/1999/xlink" width="100%" height="100%" fill-rule="evenodd" stroke-linejoin="round" stroke-miterlimit="1.414" clip-rule="evenodd" version="1.1" viewBox="0 0 128 128" xml:space="preserve"><g transform="matrix(1,0,0,1,-3072,-160)"><g id="output_muted" transform="matrix(1,0,0,1,3072,160)"><rect width="128" height="128" x="0" y="0" fill="none"/><path fill="url(#_Linear1)" fill-rule="nonzero" d="M67.427,46.207L67.427,46.066L66.591,46.066C66.871,46.106 67.151,46.148 67.427,46.207Z"/><path fill="url(#_Linear2)" fill-rule="nonzero" d="M113.975,90.105C115.132,87.253 116.106,84.34 116.864,81.362L111.052,87.174L113.975,90.105Z"/><path fill="#426180" fill-rule="nonzero" d="M96.433,46.065C96.251,45.59 96.076,45.112 95.878,44.642C93.332,38.518 89.653,33.074 84.944,28.463C83.249,26.802 80.528,26.83 78.868,28.526C77.208,30.221 77.235,32.942 78.931,34.602C82.322,37.923 85.065,41.77 87.108,46.066C87.403,46.686 87.683,47.315 87.948,47.952C89.5,51.659 90.488,55.55 90.913,59.565L98.331,52.143C97.831,50.079 97.194,48.053 96.433,46.065Z"/><path fill="#426180" fill-rule="nonzero" d="M116.66,46.065C115.849,43.023 114.844,40.039 113.614,37.135C110.058,28.718 105.013,21.203 98.616,14.8C96.938,13.121 94.219,13.119 92.539,14.797C90.86,16.474 90.858,19.194 92.536,20.874C98.146,26.49 102.574,33.086 105.698,40.482C106.471,42.31 107.15,44.172 107.734,46.065C107.813,46.321 107.879,46.582 107.954,46.84C108.295,46.813 108.637,46.79 108.982,46.79C112.243,46.79 115.291,47.995 117.631,50.168C117.355,48.788 117.021,47.423 116.66,46.065Z"/><path fill="#404547" fill-rule="nonzero" d="M67.426,9L39.229,38.662L39.229,89.319L49.938,100.591C50.115,100.392 50.286,100.19 50.476,100L63.306,87.131L49.853,73.491C47.45,71.068 46.127,67.875 46.127,64.491C46.127,61.098 47.458,57.895 49.885,55.461L55.744,49.603C57.689,47.665 60.174,46.453 62.87,46.065C63.481,45.978 64.099,45.918 64.729,45.918C65.359,45.918 65.978,45.978 66.59,46.065L67.426,46.065L67.426,9Z"/><path fill="#404547" fill-rule="nonzero" d="M17.467,38.662C15.081,38.662 13.077,39.505 11.45,41.177C10.072,42.584 9.285,44.218 9.069,46.065C9.028,46.414 9,46.766 9,47.13L9,80.853C9,83.14 9.813,85.134 11.45,86.796C13.077,88.478 15.08,89.319 17.467,89.319L30.635,89.319L30.635,46.065L30.635,38.662L17.467,38.662Z"/><path fill="#C90709" fill-rule="nonzero" d="M98.908,87.164L117.752,106.068C118.584,106.894 119,107.879 119,109.018C119,110.157 118.584,111.122 117.752,111.909L111.908,117.757C111.123,118.586 110.144,119 108.982,119C107.826,119 106.848,118.586 106.059,117.757L87.16,98.92L68.255,117.757C67.466,118.586 66.491,119 65.331,119C64.172,119 63.199,118.586 62.409,117.757L56.562,111.909C55.734,111.122 55.321,110.158 55.321,109.018C55.321,107.878 55.734,106.894 56.562,106.068L75.408,87.164L55.962,67.447C55.133,66.617 54.721,65.633 54.721,64.492C54.721,63.355 55.133,62.369 55.962,61.539L61.808,55.693C62.598,54.906 63.571,54.512 64.73,54.512C65.891,54.512 66.865,54.906 67.654,55.693L87.16,75.474L106.059,56.566C106.848,55.779 107.826,55.385 108.982,55.385C110.144,55.385 111.123,55.78 111.908,56.566L117.752,62.412C118.584,63.243 119,64.228 119,65.365C119,66.506 118.584,67.489 117.752,68.32L98.908,87.164Z"/></g></g><defs><linearGradient id="_Linear1" x1="0" x2="1" y1="0" y2="0" gradientTransform="matrix(6.56141e-15,-107.156,107.156,6.56141e-15,67.0088,117.557)" gradientUnits="userSpaceOnUse"><stop offset="0" stop-color="#101719" stop-opacity="1"/><stop offset=".1" stop-color="#101719" stop-opacity="1"/><stop offset="1" stop-color="#B7B9BA" stop-opacity="1"/></linearGradient><linearGradient id="_Linear2" x1="0" x2="1" y1="0" y2="0" gradientTransform="matrix(6.73531e-15,-109.996,109.996,6.73531e-15,113.957,119)" gradientUnits="userSpaceOnUse"><stop offset="0" stop-color="#426080" stop-opacity="1"/><stop offset=".3" stop-color="#426080" stop-opacity="1"/><stop offset="1" stop-color="#819CBD" stop-opacity="1"/></linearGradient></defs></svg>