<svg xmlns="http://www.w3.org/2000/svg" xmlns:xlink="http://www.w3.org/1999/xlink" width="100%" height="100%" fill-rule="evenodd" stroke-linejoin="round" stroke-miterlimit="1.414" clip-rule="evenodd" version="1.1" viewBox="0 0 128 128" xml:space="preserve"><rect id="ping_3" width="128" height="128" x="0" y="0" fill="none"/><path fill="#404547" fill-rule="nonzero" d="M72.851,97.65c-4.883,-4.867 -12.818,-4.866 -17.694,0.001c-4.875,4.882 -4.875,12.816 0,17.699c4.876,4.866 12.812,4.866 17.693,0c4.867,-4.882 4.867,-12.817 0.001,-17.7Z"/><path fill="#404547" fill-rule="nonzero" d="M34.376,72.243l8.66,15.001c13.767,-3.188 28.162,-3.188 41.928,0l8.66,-15.001c-18.989,-7.259 -40.258,-7.259 -59.248,0Z"/><path fill="#404547" fill-rule="nonzero" d="M98.632,63.566l7.615,-13.189c-25.809,-15.428 -58.685,-15.428 -84.495,0l7.614,13.189c22.106,-8.941 47.16,-8.941 69.266,0Z"/></svg>