<svg xmlns="http://www.w3.org/2000/svg" xmlns:xlink="http://www.w3.org/1999/xlink" width="100%" height="100%" fill-rule="evenodd" stroke-linejoin="round" stroke-miterlimit="1.414" clip-rule="evenodd" version="1.1" viewBox="0 0 128 128" xml:space="preserve"><g transform="matrix(1,0,0,1,-3456,-640)"><g id="player_on" transform="matrix(1,0,0,1.37634,3456,454.194)"><rect width="128" height="93" x="0" y="135" fill="none"/><g><path fill="#1A91D0" fill-rule="nonzero" d="M64,116.5C35.051,116.5 11.5,92.948 11.5,64C11.5,35.051 35.051,11.5 64,11.5C92.948,11.5 116.5,35.051 116.5,64C116.5,92.948 92.948,116.5 64,116.5Z" transform="matrix(1,0,0,0.726562,0,135)"/></g><g><path fill="#1A91D0" fill-rule="nonzero" d="M64,14C91.57,14 114,36.43 114,64C114,91.57 91.57,114 64,114C36.43,114 14,91.57 14,64C14,36.43 36.43,14 64,14M64,9C33.625,9 9,33.625 9,64C9,94.374 33.625,119 64,119C94.374,119 119,94.374 119,64C119,33.625 94.374,9 64,9Z" transform="matrix(1,0,0,0.726562,0,135)"/></g><g><path fill="url(#_Linear1)" fill-rule="nonzero" d="M107.319,49.565C107.319,69.1 87.922,84.91 64,84.91C40.074,84.91 20.687,69.099 20.687,49.565C20.687,30.048 40.073,14.218 64,14.218C87.922,14.218 107.319,30.048 107.319,49.565Z" transform="matrix(1,0,0,0.726562,0,135)"/></g><g><path fill="url(#_Linear2)" fill-rule="nonzero" d="M21.188,78.845C21.188,59.543 40.351,43.903 64.002,43.903C87.654,43.903 106.817,59.543 106.817,78.845C106.817,98.136 87.654,113.789 64.002,113.789C40.35,113.789 21.188,98.136 21.188,78.845Z" transform="matrix(1,0,0,0.726562,0,135)"/></g></g></g><defs><linearGradient id="_Linear1" x1="0" x2="1" y1="0" y2="0" gradientTransform="matrix(4.3286e-15,-70.6914,70.6914,4.3286e-15,64.0034,84.9102)" gradientUnits="userSpaceOnUse"><stop offset="0" stop-color="#1A91D0" stop-opacity="1"/><stop offset=".3" stop-color="#1A91D0" stop-opacity="1"/><stop offset=".38" stop-color="#2C9AD4" stop-opacity="1"/><stop offset=".53" stop-color="#5BB0DD" stop-opacity="1"/><stop offset=".76" stop-color="#A6D4ED" stop-opacity="1"/><stop offset="1" stop-color="#fff" stop-opacity="1"/></linearGradient><linearGradient id="_Linear2" x1="0" x2="1" y1="0" y2="0" gradientTransform="matrix(4.2793e-15,69.8863,-69.8863,4.2793e-15,64.0024,43.9028)" gradientUnits="userSpaceOnUse"><stop offset="0" stop-color="#1A91D0" stop-opacity=".4"/><stop offset=".48" stop-color="#1A91D0" stop-opacity=".4"/><stop offset="1" stop-color="#fff" stop-opacity=".4"/></linearGradient></defs></svg>