<svg xmlns="http://www.w3.org/2000/svg" xmlns:xlink="http://www.w3.org/1999/xlink" width="100%" height="100%" fill-rule="evenodd" stroke-linejoin="round" stroke-miterlimit="1.414" clip-rule="evenodd" version="1.1" viewBox="0 0 128 128" xml:space="preserve"><g transform="matrix(1,0,0,1,-3456,-800)"><g id="player_whisper" transform="matrix(1,0,0,1.09402,3456,362.393)"><rect width="128" height="117" x="0" y="400" fill="none"/><g transform="matrix(1,0,0,0.914062,8.08,407.386)"><circle cx="55.92" cy="55.92" r="55" fill="#C90B0E"/></g><g><path fill="url(#_Linear1)" fill-rule="nonzero" d="M103,46.23C102.988,51.428 101.729,56.549 99.33,61.16C91.33,49.27 75.84,41.16 58.06,41.16C38.54,41.16 21.8,50.86 14.65,64.7C10.907,59.265 8.883,52.829 8.84,46.23C8.84,25 29.91,7.76 55.92,7.76C81.93,7.76 103,25 103,46.23Z" transform="matrix(1,0,0,0.914062,8.08,407.386)"/></g><g><path fill="url(#_Linear2)" fill-rule="nonzero" d="M15.84,74.38C15.868,70.245 16.956,66.185 19,62.59C25.79,72 39,78.34 54.1,78.34C70.72,78.34 84.97,70.68 91.1,59.75C94.252,63.978 95.969,69.106 96,74.38C96,91.15 78.06,104.76 55.92,104.76C33.78,104.76 15.84,91.15 15.84,74.38Z" transform="matrix(1,0,0,0.914062,8.08,407.386)"/></g></g></g><defs><linearGradient id="_Linear1" x1="0" x2="1" y1="0" y2="0" gradientTransform="matrix(2.80995e-15,45.89,-45.89,2.80995e-15,55.92,6.93)" gradientUnits="userSpaceOnUse"><stop offset="0" stop-color="#fff" stop-opacity=".8"/><stop offset="1" stop-color="#C90B0E" stop-opacity=".8"/></linearGradient><linearGradient id="_Linear2" x1="0" x2="1" y1="0" y2="0" gradientTransform="matrix(3.43972e-14,-36.23,36.23,3.43972e-14,55.92,105.41)" gradientUnits="userSpaceOnUse"><stop offset="0" stop-color="#fff" stop-opacity=".3"/><stop offset="0" stop-color="#FFFEFE" stop-opacity=".3"/><stop offset=".22" stop-color="#EFB5B6" stop-opacity=".3"/><stop offset=".43" stop-color="#E1797A" stop-opacity=".3"/><stop offset=".61" stop-color="#D7494C" stop-opacity=".3"/><stop offset=".78" stop-color="#CF272A" stop-opacity=".3"/><stop offset=".91" stop-color="#CB1315" stop-opacity=".3"/><stop offset="1" stop-color="#C90B0E" stop-opacity=".3"/></linearGradient></defs></svg>