<svg xmlns="http://www.w3.org/2000/svg" xmlns:xlink="http://www.w3.org/1999/xlink" width="100%" height="100%" fill-rule="evenodd" stroke-linejoin="round" stroke-miterlimit="1.414" clip-rule="evenodd" version="1.1" viewBox="0 0 128 128" xml:space="preserve"><g transform="matrix(1,0,0,1,-3456,-480)"><g id="player_off" transform="matrix(1,0,0,1.37634,3456,294.194)"><rect width="128" height="93" x="0" y="135" fill="none"/><g><path fill="#002F5D" fill-rule="nonzero" d="M64,116.5C35.051,116.5 11.5,92.948 11.5,64C11.5,35.051 35.051,11.5 64,11.5C92.948,11.5 116.5,35.051 116.5,64C116.5,92.948 92.948,116.5 64,116.5Z" transform="matrix(1,0,0,0.726562,0,135)"/></g><g><path fill="#002F5D" fill-rule="nonzero" d="M64,14C91.57,14 114,36.43 114,64C114,91.57 91.57,114 64,114C36.43,114 14,91.57 14,64C14,36.43 36.43,14 64,14M64,9C33.624,9 9,33.624 9,64C9,94.375 33.624,119 64,119C94.375,119 119,94.375 119,64C119,33.624 94.375,9 64,9Z" transform="matrix(1,0,0,0.726562,0,135)"/></g><g><path fill="url(#_Linear1)" fill-rule="nonzero" d="M107.318,49.564C107.318,69.096 87.923,84.912 64,84.912C40.075,84.912 20.688,69.097 20.688,49.564C20.688,30.048 40.075,14.217 64,14.217C87.924,14.218 107.318,30.048 107.318,49.564Z" transform="matrix(1,0,0,0.726562,0,135)"/></g><g><path fill="url(#_Linear2)" fill-rule="nonzero" d="M21.188,78.844C21.188,59.543 40.351,43.904 64.002,43.904C87.653,43.904 106.819,59.544 106.819,78.844C106.819,98.137 87.653,113.786 64.002,113.786C40.351,113.786 21.188,98.137 21.188,78.844Z" transform="matrix(1,0,0,0.726562,0,135)"/></g></g></g><defs><linearGradient id="_Linear1" x1="0" x2="1" y1="0" y2="0" gradientTransform="matrix(4.32875e-15,-70.6938,70.6938,4.32875e-15,64.0034,84.9121)" gradientUnits="userSpaceOnUse"><stop offset="0" stop-color="#002F5D" stop-opacity="1"/><stop offset=".3" stop-color="#002F5D" stop-opacity="1"/><stop offset=".37" stop-color="#123E68" stop-opacity="1"/><stop offset=".51" stop-color="#416486" stop-opacity="1"/><stop offset=".72" stop-color="#8CA1B6" stop-opacity="1"/><stop offset=".97" stop-color="#F3F5F7" stop-opacity="1"/><stop offset="1" stop-color="#fff" stop-opacity="1"/></linearGradient><linearGradient id="_Linear2" x1="0" x2="1" y1="0" y2="0" gradientTransform="matrix(4.27909e-15,69.8828,-69.8828,4.27909e-15,64.0034,43.9033)" gradientUnits="userSpaceOnUse"><stop offset="0" stop-color="#002F5D" stop-opacity=".4"/><stop offset=".48" stop-color="#002F5D" stop-opacity=".4"/><stop offset="1" stop-color="#fff" stop-opacity=".4"/></linearGradient></defs></svg>