<svg xmlns="http://www.w3.org/2000/svg" xmlns:xlink="http://www.w3.org/1999/xlink" width="100%" height="100%" fill-rule="evenodd" stroke-linejoin="round" stroke-miterlimit="1.414" clip-rule="evenodd" version="1.1" viewBox="0 0 128 128" xml:space="preserve"><rect id="soundpack" width="128" height="128" x="0" y="0" fill="none"/><path fill="#878b8c" fill-rule="nonzero" d="M104,9l-80,0c-8.284,0 -15,6.716 -15,15l0,80c0,8.284 6.716,15 15,15l80,0c8.284,0 15,-6.716 15,-15l0,-80c0,-8.284 -6.716,-15 -15,-15Z"/><path fill="#101719" fill-rule="nonzero" d="M90.31,43.797c-16.907,1.849 -19.273,-9.344 -26.63,-6.485l0,56.1l-0.004,0c-0.093,6.414 -8.151,11.587 -18.084,11.587c-9.99,0 -18.09,-5.234 -18.09,-11.701c0,-6.455 8.1,-11.696 18.09,-11.696c3.833,0 7.385,0.768 10.311,2.09c0,0 0,-37.914 0,-40.457c0,-13.39 -0.201,-18.899 8.095,-20.105c12.388,-1.802 18.617,15.945 37.855,3.464c-0.001,-0.001 4.766,15.417 -11.543,17.203Z"/></svg>