<svg xmlns="http://www.w3.org/2000/svg" xmlns:xlink="http://www.w3.org/1999/xlink" width="100%" height="100%" fill-rule="evenodd" stroke-linejoin="round" stroke-miterlimit="1.414" clip-rule="evenodd" version="1.1" viewBox="0 0 128 128" xml:space="preserve"><g transform="matrix(1,0,0,1,-4224,-800)"><g id="switch_standard" transform="matrix(1,0,0,1.09402,4224,362.393)"><rect width="128" height="117" x="0" y="400" fill="none"/><g><path fill="#404547" fill-rule="nonzero" d="M87.705,53.908C96.762,58.588 107.064,57.73 114.524,50.207C119.717,44.967 118.961,25.012 118.961,25.012L114.116,23.404L109.128,37.706C109.128,37.706 104.254,46.972 92.549,35.175C80.848,23.375 90.815,19.24 90.815,19.24L104.908,14.116L103.381,9.303C103.381,9.303 83.172,7.431 77.634,13.018C70.175,20.533 69.467,31.071 74.116,40.202L54.861,59.457L68.51,73.103L87.705,53.908Z" transform="matrix(1,0,0,0.914062,0.000278033,400)"/></g><g><path fill="#426080" fill-rule="nonzero" d="M13.905,70.755L9,118.999L57.228,114.101L42.375,99.238L61.439,80.174L47.791,66.526L28.729,85.587L13.905,70.755Z" transform="matrix(1,0,0,0.914062,0.000278033,400)"/></g></g></g></svg>