<svg xmlns="http://www.w3.org/2000/svg" xmlns:xlink="http://www.w3.org/1999/xlink" width="100%" height="100%" fill-rule="evenodd" stroke-linejoin="round" stroke-miterlimit="1.414" clip-rule="evenodd" version="1.1" viewBox="0 0 128 128" xml:space="preserve"><g transform="matrix(1,0,0,1,-4608,0)"><g id="talk_power_revoke_all_grant_next" transform="matrix(1,0,0,1,4608,0)"><rect width="128" height="128" x="0" y="0" fill="none"/><g><path fill="#9FA2A3" fill-rule="nonzero" d="M57.38,58.89L74.38,55.873L78.422,55.156L78.422,33.008L22.294,33.008C20.034,33.008 18.116,33.803 16.565,35.399C15.016,36.995 14.238,38.886 14.238,41.064L14.238,73.172C14.238,75.364 15.016,77.242 16.565,78.849C18.117,80.433 20.035,81.231 22.294,81.231L32.106,81.231L34.235,89.237C34.91,87.575 35.912,86.049 37.215,84.745L43.892,78.068C46.462,75.502 49.892,74.089 53.549,74.089C57.203,74.089 60.632,75.501 63.212,78.074L67.425,82.287L68.483,81.231L74.107,75.618L69.589,71.1L57.38,58.89Z" transform="matrix(1,0,0,1,-2.5955,0)"/></g><g><path fill="#9FA2A3" fill-rule="nonzero" d="M40.554,113.002C41.135,115.186 42.394,116.83 44.335,117.917C46.274,119.008 48.302,119.275 50.406,118.716L51.342,118.465C51.412,118.446 51.477,118.421 51.546,118.401L38.527,105.381L40.554,113.002Z" transform="matrix(1,0,0,1,-2.5955,0)"/></g><g><path fill="#9FA2A3" fill-rule="nonzero" d="M113.763,9L88.498,28.621L88.498,53.369L113.763,48.886L113.763,9Z" transform="matrix(1,0,0,1,-2.5955,0)"/></g><g><path fill="#426180" fill-rule="nonzero" d="M118.953,57.105L75.953,64.735L86.842,75.624L67.418,95.008L56.848,84.437C55.948,83.54 54.849,83.088 53.55,83.088C52.25,83.088 51.151,83.539 50.252,84.437L43.579,91.109C42.68,92.009 42.231,93.109 42.231,94.408C42.231,95.708 42.68,96.806 43.579,97.705L63.595,117.722C64.445,118.521 65.67,118.95 67.268,118.996C69.016,119.045 70.342,118.621 71.242,117.722L100.113,88.896L111.323,100.106L118.953,57.105Z" transform="matrix(1,0,0,1,-2.5955,0)"/></g></g></g></svg>