<svg xmlns="http://www.w3.org/2000/svg" xmlns:xlink="http://www.w3.org/1999/xlink" width="100%" height="100%" fill-rule="evenodd" stroke-linejoin="round" stroke-miterlimit="1.414" clip-rule="evenodd" version="1.1" viewBox="0 0 128 128" xml:space="preserve"><rect id="textformat_underline" width="128" height="128" x="0" y="0" fill="none"/><path fill="#101719" fill-rule="nonzero" d="M43.729,9l0,58.461c0,9.297 1.638,16.029 4.925,20.195c3.28,4.181 8.343,6.262 15.202,6.262c7.423,0 12.851,-2.081 16.276,-6.262c3.431,-4.166 5.141,-10.898 5.141,-20.195l0,-58.461l19.273,0l0,59.88c0,13.661 -3.426,23.924 -10.272,30.789c-6.848,6.88 -17.049,10.322 -30.561,10.322c-14.28,0 -24.564,-3.464 -30.835,-10.383c-6.288,-6.919 -9.425,-17.162 -9.425,-30.729l0,-59.879l20.276,0Z"/><rect width="81.094" height="10" x="23.453" y="118" fill="#101719"/></svg>